<svg id="Layer_1" data-name="Layer 1" xmlns="http://www.w3.org/2000/svg" viewBox="0 0 24 24"><title>Speaker-(Mute)</title><path d="M18,12a5.49,5.49,0,0,0-3-5v3.07L17.91,13A5.93,5.93,0,0,0,18,12ZM0.16,2.28l4.3,4.3L4,7H0.3a0.3,0.3,0,0,0-.3.3v9.4a0.3,0.3,0,0,0,.3.3H4l7.6,7a0.4,0.4,0,0,0,.4-0.4V14.12l5.21,5.21-0.07.06a1.5,1.5,0,0,0,1.72,2.46c0.17-.12.33-0.25,0.49-0.37l2.37,2.37,2.12-2.12L2.28,0.16Zm17,2.33a9,9,0,0,1,3.18,10.78l2.26,2.26a12,12,0,0,0-3.72-15.5A1.5,1.5,0,1,0,17.14,4.61ZM12,0.4A0.4,0.4,0,0,0,11.6,0L8.13,3.2,12,7.07V0.4Z"/></svg>